<?xml version="1.0" encoding="UTF-8" standalone="no"?>
<!-- Generator: Adobe Illustrator 15.0.2, SVG Export Plug-In . SVG Version: 6.00 Build 0)  -->

<svg
   xmlns:dc="http://purl.org/dc/elements/1.1/"
   xmlns:cc="http://creativecommons.org/ns#"
   xmlns:rdf="http://www.w3.org/1999/02/22-rdf-syntax-ns#"
   xmlns:svg="http://www.w3.org/2000/svg"
   xmlns="http://www.w3.org/2000/svg"
   xmlns:sodipodi="http://sodipodi.sourceforge.net/DTD/sodipodi-0.dtd"
   xmlns:inkscape="http://www.inkscape.org/namespaces/inkscape"
   version="1.1"
   id="Layer_1"
   x="0px"
   y="0px"
   width="350"
   height="300"
   viewBox="0 0 350 300"
   enable-background="new 0 0 2000 2000"
   xml:space="preserve"
   inkscape:version="0.48.2 r9819"
   sodipodi:docname="OKC.svg"><metadata
   id="metadata129"><rdf:RDF><cc:Work
       rdf:about=""><dc:format>image/svg+xml</dc:format><dc:type
         rdf:resource="http://purl.org/dc/dcmitype/StillImage" /></cc:Work></rdf:RDF></metadata><defs
   id="defs127" /><sodipodi:namedview
   pagecolor="#ffffff"
   bordercolor="#666666"
   borderopacity="1"
   objecttolerance="10"
   gridtolerance="10"
   guidetolerance="10"
   inkscape:pageopacity="0"
   inkscape:pageshadow="2"
   inkscape:window-width="1184"
   inkscape:window-height="749"
   id="namedview125"
   showgrid="false"
   inkscape:zoom="0.472"
   inkscape:cx="1000"
   inkscape:cy="364.89271"
   inkscape:window-x="160"
   inkscape:window-y="60"
   inkscape:window-maximized="0"
   inkscape:current-layer="Layer_1" />
<g
   id="g3"
   transform="matrix(0.16923925,0,0,0.19100247,6.7800709,-39.4295)">
	<path
   d="m 1917.543,855.661 c -5.912,-0.009 -87.573,-0.108 -157.199,-0.194 l 33.59,-266.765 12.029,-88.731 5.23,-38.562 -35.379,-16.211 -81.646,-37.409 C 1415.993,280.332 1139.743,266.571 1033.884,266.571 h -22.646 c -104.279,0 -376.735,13.759 -654.916,141.218 l -81.645,37.409 -35.377,16.211 5.229,38.562 12.028,88.713 33.257,265.836 c -90.001,-0.015 -186.407,-0.03 -186.407,-0.03 l -40.091,264.596 52.882,0.088 c -1.936,15.293 -3.665,28.924 -5.162,40.683 -7.313,1.747 -12.849,3.069 -12.849,3.069 l -36.17,8.642 -36.004,346.636 78.221,-27.559 c 1.087,-0.384 111.351,-38.928 277.011,-77.118 l 1.379,0.748 54.121,29.283 c 16.494,8.924 101.381,59.558 183.474,108.529 146.452,87.357 244.134,145.467 266.661,156.813 45.719,23.027 89.932,34.703 131.409,34.703 h 8.549 c 41.478,0 85.692,-11.676 131.411,-34.703 22.451,-11.309 120.509,-70.113 267.548,-158.535 84.289,-50.688 171.45,-103.104 188.025,-112.073 l 38.872,-21.035 c 112.78,28.541 179.854,53.738 180.62,54.029 l 62.866,23.801 80.771,-639.352 -59.408,-0.074 z"
   id="path5"
   inkscape:connector-curvature="0"
   style="fill:#e22739" />
	<path
   d="m 1917.51,881.906 c -6.782,-0.008 -113.3,-0.139 -186.922,-0.229 l 37.321,-296.374 12.049,-88.86 2.615,-19.28 -17.69,-8.105 -81.645,-37.41 C 1409.759,306.344 1138.021,292.815 1033.884,292.815 h -22.646 C 908.723,292.812 640.757,306.331 367.256,431.648 l -81.646,37.41 -17.689,8.105 2.614,19.281 12.05,88.859 36.963,295.466 c -80.587,-0.014 -171.002,-0.028 -171.002,-0.028 l -22.573,-0.004 -3.38,22.317 -24.197,159.706 -4.564,30.127 30.471,0.049 21.662,0.038 c -4.708,37.285 -8.532,67.428 -11.19,88.193 -13.73,3.279 -30.488,7.286 -30.488,7.286 l -18.085,4.321 -1.92,18.494 -23.595,227.155 -4.284,41.245 39.111,-13.779 c 1.108,-0.393 113.193,-39.611 281.402,-78.303 2.666,-0.613 5.412,-1.231 8.124,-1.851 l 10.072,5.448 54.122,29.286 c 16.978,9.188 98.317,57.707 184.431,109.072 118.799,70.865 241.643,144.138 265.02,155.913 42.023,21.167 82.263,31.898 119.603,31.898 h 8.549 c 37.34,0 77.581,-10.731 119.604,-31.898 23.257,-11.711 146.57,-85.87 265.822,-157.583 88.436,-53.181 171.969,-103.415 189.068,-112.667 l 47.845,-25.888 c 120.286,29.94 192.627,57.114 193.432,57.419 l 31.43,11.903 3.928,-33.382 c 0.282,-2.389 65.554,-513.845 65.554,-513.845 l 3.697,-29.474 -29.707,-0.031 z"
   id="path7"
   inkscape:connector-curvature="0"
   style="fill:#fcfefc" />
	<g
   id="g9">
		<path
   d="m 1033.885,319.062 c -4.789,0 -17.856,0 -22.646,0 -72.004,-0.003 -348.577,6.104 -633.05,136.447 l -81.645,37.409 12.066,88.991 90.725,725.218 8.267,60.979 54.121,29.283 c 40.038,21.665 408.795,244.496 448.767,264.629 38.327,19.305 74.595,29.092 107.797,29.092 1.433,0 7.117,0 8.549,0 33.205,0 69.471,-9.787 107.799,-29.092 39.971,-20.133 414.167,-248.229 454.203,-269.896 l 54.122,-29.283 8.267,-60.976 90.657,-719.955 12.065,-88.991 -81.643,-37.409 C 1387.842,325.171 1105.891,319.062 1033.885,319.062 l 0,0 z"
   id="path11"
   inkscape:connector-curvature="0"
   style="fill:#0e2752" />
	</g>
	<g
   id="g13">
		<path
   d="m 1033.891,486.613 c -5.138,0 -17.512,0 -22.651,0 -28.881,0 -107.412,1.934 -212.687,19.857 -131.335,22.359 -257.705,61.087 -375.603,115.106 l -40.82,18.704 6.032,44.496 87.654,646.463 4.135,30.491 27.06,14.642 c 15.939,8.622 390.852,211.471 430.724,231.554 29.798,15.008 56.899,22.617 80.552,22.617 1.446,0 7.104,0 8.549,0 23.654,0 50.755,-7.606 80.553,-22.617 39.872,-20.083 414.783,-222.932 430.726,-231.554 l 27.058,-14.642 4.138,-30.491 87.652,-646.463 6.032,-44.496 -40.82,-18.704 c -117.892,-54.016 -244.256,-92.741 -375.587,-115.103 -105.277,-17.924 -183.819,-19.86 -212.697,-19.86 l 0,0 z"
   id="path15"
   inkscape:connector-curvature="0"
   style="fill:#ffffff" />
	</g>
	<path
   d="m 1033.888,521.944 c -5.578,0 -17.068,0 -22.651,0 -27.979,0 -104.137,1.885 -206.754,19.355 -128.301,21.844 -251.716,59.659 -366.814,112.396 l -17.009,7.793 2.514,18.541 87.655,646.464 1.722,12.703 11.274,6.101 c 15.922,8.614 390.391,211.221 429.804,231.074 30.919,15.572 52.228,18.841 64.66,18.841 1.484,0 7.065,0 8.549,0 12.432,0 33.742,-3.269 64.66,-18.841 39.412,-19.854 413.882,-222.46 429.805,-231.074 l 11.273,-6.101 1.723,-12.703 87.652,-646.464 2.514,-18.541 -17.008,-7.793 C 1492.365,600.961 1368.955,563.146 1240.658,541.302 1138.035,523.831 1061.87,521.944 1033.888,521.944 l 0,0 z"
   id="path17"
   inkscape:connector-curvature="0"
   style="fill:#0e2752" />
	<path
   d="m 1022.563,547.31 c -14.234,-0.404 -279.102,-5.966 -574.382,129.329 l 87.654,646.465 c 0,0 389.61,210.816 429.145,230.729 35.528,17.895 54.16,16.381 57.583,15.888 3.422,0.493 22.054,2.007 57.582,-15.888 39.537,-19.913 429.146,-230.729 429.146,-230.729 l 87.653,-646.465 C 1301.662,541.343 1036.796,546.906 1022.563,547.31 z"
   id="path19"
   inkscape:connector-curvature="0"
   style="fill:#b77632" />
	<path
   d="m 1330.47,781.482 c -10.675,0 -21.644,-0.272 -32.857,-0.772 l -8.919,-44.955 0,0 c 173.887,0 256.267,-63.294 256.267,-63.294 0,0 -45.984,33.313 -214.49,33.313 -41.932,0 -88.338,-4.13 -136.759,-10.328 -11.999,-41.262 -24.626,-89.216 -32.562,-120.002 l 22.873,-3.833 -19.138,-99.782 -29.122,4.813 c -62.079,10.259 -103.233,11.136 -111.664,11.204 h -2.237 -0.279 l -0.337,0.004 -0.436,10e-4 c -4.608,0 -46.931,-0.316 -112.851,-11.209 l -29.121,-4.813 -19.14,99.782 22.874,3.833 c -4.842,18.782 -11.43,43.958 -18.555,70.102 -34.738,-3.946 -67.442,-6.398 -96.965,-6.398 -154.276,0 -278.497,63.708 -278.497,63.708 0,0 65.448,-31.212 189.202,-31.212 41.171,0 103.33,7.099 174.345,16.568 -3.091,10.762 -6.161,21.164 -9.12,30.823 -26.933,-2.619 -52.442,-4.178 -75.931,-4.178 -154.276,0 -278.497,63.708 -278.497,63.708 0,0 65.448,-31.212 189.202,-31.212 20.136,0 45.313,1.704 74.067,4.546 l -7.764,39.139 c -143.44,5.771 -255.505,63.235 -255.505,63.235 0,0 65.448,-31.212 189.202,-31.212 31.589,0 75.545,4.183 126.364,10.404 l -57.194,159.687 -14.505,40.497 h 578.876 l -14.505,-40.497 -38.167,-106.555 c 10.406,0.37 20.461,0.576 30.066,0.576 173.887,0 256.267,-63.294 256.267,-63.294 0,0 -45.984,33.313 -214.49,33.313 -26.414,0 -54.603,-1.639 -83.948,-4.4 l -7.899,-22.056 36.452,-6.978 29.939,-5.732 -1.333,-6.731 c 163.626,-3.484 241.279,-63.125 241.279,-63.125 0,0 -45.982,33.312 -214.488,33.312 z M 915.555,960.289 927.38,917.428 c 6.403,5.642 12.899,11.283 18.954,16.498 l -30.779,26.363 z m 181.833,-26.364 c 6.055,-5.214 12.55,-10.856 18.955,-16.498 l 11.824,42.861 -30.779,-26.363 z"
   id="path21"
   inkscape:connector-curvature="0"
   style="fill:#fcfefc" />
	<path
   d="m 1269.378,794.014 -7.739,-39.003 c -35.402,8.01 -76.13,13.964 -76.13,13.964 -21.47,-56.1 -61.827,-217.956 -61.827,-217.956 l 24.76,-4.15 -7.738,-40.351 c -71.853,11.875 -116.345,11.634 -118.785,11.61 v -0.001 c 0,0 -0.038,0 -0.057,0 -0.02,0 -0.061,0 -0.061,0 v 0.001 c -2.438,0.023 -46.929,0.265 -118.781,-11.61 l -7.74,40.351 24.76,4.15 c 0,0 -40.358,161.856 -61.828,217.956 0,0 -40.727,-5.955 -76.13,-13.964 l -7.738,39.003 71.194,13.628 -70.1,195.719 96.822,0 39.257,-142.298 c 12.618,14.956 81.456,72.792 81.456,72.792 l -81.456,69.773 h 110.285 0.117 110.287 l -81.455,-69.773 c 0,0 68.838,-57.836 81.455,-72.792 l 39.257,142.298 96.823,0 -70.101,-195.719 71.193,-13.628 z m -156.97,-18.086 c -36.896,-44.03 -72.567,-102.935 -72.567,-102.935 4.844,-8.607 36.424,-65.923 36.424,-65.923 10.423,57.258 36.143,168.858 36.143,168.858 z m -90.522,6.543 c -0.014,0 -0.017,0 -0.05,0 -1.805,-10e-4 -31.012,-0.044 -52.53,-1.691 21.578,-29.759 51.325,-75.92 52.555,-77.832 1.229,1.912 30.979,48.073 52.553,77.832 -21.515,1.646 -50.724,1.689 -52.528,1.691 z m -0.085,-223.18 0,0 c 0.021,0 0.038,0 0.061,0 0.021,0 0.038,0 0.057,0 l 0,0 c 31.23,-0.003 45.823,-1.767 45.823,-1.767 -22.846,45.298 -44.665,81.743 -45.88,83.77 -1.216,-2.027 -23.035,-38.472 -45.88,-83.77 -10e-4,0 14.593,1.764 45.819,1.767 z m -54.344,47.78 c 0,0 31.581,57.315 36.421,65.923 0,0 -35.669,58.905 -72.566,102.935 0,-10e-4 25.722,-111.601 36.145,-168.858 z m 54.404,300.703 -94.923,-89.926 c 0,0 36.866,4.986 94.86,4.994 l 0,0 c 0.021,0 0.041,0 0.063,0 0.021,0 0.041,0 0.063,0 l 0,0 c 57.994,-0.008 94.86,-4.994 94.86,-4.994 l -94.923,89.926 z"
   id="path23"
   inkscape:connector-curvature="0"
   style="fill:#0e2752" />
	<path
   d="m 659.616,1390.006 c 15.84,8.553 32.49,17.539 49.516,26.729 225.257,37.427 358.092,80.324 426.711,107.652 18.576,-9.927 40.518,-21.695 64.324,-34.489 -248.902,-89.335 -443.286,-101.223 -540.551,-99.892 z"
   id="path25"
   inkscape:connector-curvature="0"
   style="fill:#572600" />
	<path
   d="m 1106.554,1539.996 c -100.024,-37.919 -255.705,-65.097 -304.186,-73.009 78.239,42.122 147.162,79.063 162.612,86.846 35.528,17.895 54.16,16.381 57.583,15.888 3.422,0.493 22.054,2.007 57.582,-15.888 4.541,-2.29 13.747,-7.116 26.409,-13.837 z"
   id="path27"
   inkscape:connector-curvature="0"
   style="fill:#572600" />
	<path
   d="m 1009.94,1283.246 c -58.837,0 -117.262,2.425 -174.476,6.67 236.822,34.694 397.053,91.459 489.468,132.782 22.64,-12.212 44.793,-24.171 65.456,-35.331 -122.43,-58.031 -278.501,-89.981 -362.019,-104.037 -6.125,-0.046 -12.262,-0.084 -18.429,-0.084 z"
   id="path29"
   inkscape:connector-curvature="0"
   style="fill:#572600" />
	<path
   d="m 618.365,1314.678 c -24.992,3.796 -49.475,7.821 -73.361,12.017 363.01,38.837 572.845,99.8 687.227,145.959 20.654,-11.114 42.111,-22.675 63.539,-34.229 -286.56,-110.819 -564.31,-123.708 -677.405,-123.747 z"
   id="path31"
   inkscape:connector-curvature="0"
   style="fill:#572600" />
	<path
   d="m 1218.172,1291.92 c 56.069,19.573 129.05,47.783 196.579,82.289 37.071,-20.028 67.056,-36.241 82.705,-44.705 -82.757,-15.461 -176.96,-29.18 -279.284,-37.584 z"
   id="path33"
   inkscape:connector-curvature="0"
   style="fill:#572600" />
	<path
   id="Stroke_1_"
   d="m 1661.009,907.839 c -42.176,-0.001 -76.634,15.84 -97.179,44.635 -4.467,6 -7.846,12.171 -10.476,18.276 -14.564,-8.966 -31.377,-13.965 -48.412,-13.965 l -0.342,0.003 c 0,0 -397.491,-3.375 -407.201,-1.33 l -0.135,0.027 -0.132,0.029 c -15.719,3.398 -29.906,10.464 -41.574,20.054 -15.015,-15.156 -35.979,-24.563 -58.012,-24.564 h -0.002 c -0.382,0 -443.541,6.484 -465.107,13.154 -15.413,-34.041 -50.857,-57.132 -89.411,-57.132 -0.6,0 -1.198,0.006 -1.797,0.018 -22.686,-0.015 -292.687,-0.056 -292.687,-0.056 l -24.197,159.706 51.377,0.082 c -1.097,8.697 -12.469,98.976 -17.227,135.707 -0.683,0.164 -48.111,11.498 -48.111,11.498 L 86.79,1441.136 c 0,0 448.155,-157.89 923.149,-157.89 474.995,0 841.96,138.948 841.96,138.948 0,0 28.152,-239.39 30.11,-256.304 2.142,-17.054 -0.744,-34.237 -8.585,-51.315 l 18.148,0.213 25.903,-206.637 c 0,0 -254.045,-0.312 -256.466,-0.312 z"
   inkscape:connector-curvature="0"
   style="fill:#0e2752" />
	<g
   id="Team_Text">
		<path
   d="m 488.054,988.893 c -6.31,-18.983 -26.442,-31.937 -46.267,-31.377 -83.42,-0.056 -166.81,0.029 -250.229,-0.027 -3.141,19.572 -5.553,39.228 -8.524,58.828 16.656,0.027 33.312,0 49.967,0.027 -9.702,75.793 -18.983,151.614 -28.995,227.35 -15.843,3.479 -31.573,7.375 -47.332,11.134 -2.103,19.149 -4.29,38.301 -6.028,57.507 80.813,-21.73 161.82,-42.87 243.668,-60.341 12.142,-2.943 25.686,-3.45 35.892,-11.468 9.057,-6.813 16.908,-15.31 22.88,-24.954 5.188,-8.527 5.554,-18.787 7.066,-28.377 2.216,-16.572 5.413,-33.032 7.208,-49.632 0.337,-17.47 -13.964,-30.844 -28.854,-37.407 15.394,-3.672 29.442,-12.897 37.938,-26.384 7.853,-11.75 6.563,-26.44 8.498,-39.845 0.953,-14.974 5.019,-30.003 3.112,-45.034 z M 355.62,1216.858 c -15.703,3.226 -31.462,6.111 -47.135,9.368 4.038,-28.462 7.962,-56.951 11.721,-85.468 15.31,-1.964 30.732,-2.805 46.041,-4.516 -3.056,26.949 -7.486,53.698 -10.627,80.616 z m 17.245,-127.665 c -15.225,1.147 -30.48,1.711 -45.705,2.301 3.813,-28.52 7.738,-56.979 11.692,-85.468 15.169,0 30.312,-0.057 45.482,0.057 -4.039,27.674 -7.657,55.407 -11.469,83.11 z"
   id="path37"
   inkscape:connector-curvature="0"
   style="fill:#fcfefc" />
		<path
   d="m 1846.627,1063.788 c 4.036,-35.163 9.335,-70.157 13.71,-105.263 -64.407,-0.112 -128.818,0.029 -193.224,-0.055 -22.742,-1.179 -48.68,3.926 -62.502,23.749 -8.216,10.74 -9.423,24.621 -11.132,37.544 -2.521,21.537 -6.17,42.932 -8.3,64.492 -0.87,22.071 13.489,47.025 36.956,49.803 36.51,4.512 73.129,8.129 109.637,12.617 -2.636,28.602 -6.562,57.061 -9.758,85.604 -16.685,-3.141 -33.365,-6.419 -50.023,-9.869 2.243,-14.693 4.88,-29.329 6.282,-44.108 -34.236,-4.961 -68.363,-10.542 -102.57,-15.701 -3.648,27.143 -6.422,54.396 -9.788,81.568 67.886,14.133 135.491,29.694 202.704,46.94 21.646,6.363 50.808,-8.722 51.342,-33.06 3.812,-32.78 8.157,-65.473 11.945,-98.253 1.793,-13.71 -4.602,-26.862 -12.34,-37.741 -7.683,-10.292 -18.226,-20.245 -31.797,-20.891 -31.572,-3.339 -63.176,-6.364 -94.721,-9.984 3.312,-26.02 6.477,-52.097 9.981,-78.088 13.264,0.027 26.557,0.082 39.82,0.137 -1.265,15.898 -2.75,31.77 -4.321,47.642 36.035,1.038 72.038,2.498 108.099,2.917 z"
   id="path39"
   inkscape:connector-curvature="0"
   style="fill:#fcfefc" />
		<path
   d="m 770.333,1039.338 c 1.599,-12.002 3.674,-23.946 5.104,-35.977 -66.315,0.842 -132.602,2.243 -198.918,3.422 -14.553,0.111 -30.17,3.364 -40.937,13.852 -9.058,8.385 -13.263,20.582 -14.919,32.525 -7.654,49.128 -15.421,98.253 -22.908,147.408 -12.057,1.933 -24.142,3.645 -36.2,5.522 -3.449,12.284 -6.168,24.76 -9.309,37.126 41.752,-7.316 83.615,-14.132 125.508,-20.61 5.074,-29.61 10.206,-59.222 15.112,-88.858 12.591,-0.729 25.18,-1.375 37.798,-1.571 -5.159,28.322 -9.561,56.812 -14.468,85.186 41.274,-5.69 82.719,-10.232 124.134,-14.722 1.346,-9.896 2.775,-19.795 3.952,-29.721 -12.085,1.262 -24.198,1.851 -36.311,2.58 7.851,-45.005 15.478,-90.009 23.441,-134.984 12.984,-0.311 25.94,-0.73 38.921,-1.178 z m -133.947,56.192 c -12.533,0.194 -25.04,0.589 -37.545,0.925 3.56,-18.338 6.618,-36.789 10.066,-55.185 12.393,-0.249 24.787,-0.755 37.209,-1.177 -3.366,18.454 -5.972,37.044 -9.73,55.437 z"
   id="path41"
   inkscape:connector-curvature="0"
   style="fill:#fcfefc" />
		<path
   d="m 1428.856,1227.373 c -140.848,-21.534 -283.403,-31.654 -425.873,-30.003 3.308,-24.757 7.204,-49.432 10.065,-74.249 1.263,-15.646 -15.703,-22.067 -27.591,-26.695 13.57,-3.672 31.011,-8.412 35.274,-23.747 2.606,-16.572 5.523,-33.314 5.973,-50.053 -3.59,-12.479 -16.879,-21.424 -29.75,-21.143 -70.579,0.337 -141.155,1.121 -211.732,1.683 -1.878,11.943 -3.393,23.947 -5.384,35.919 12.479,-0.479 24.984,-0.843 37.461,-1.204 -6.981,55.069 -15.085,110 -21.815,165.098 -34.825,3.646 -69.792,6.169 -104.562,10.49 -182.709,20.159 -363.484,56.891 -539.885,108.54 -2.748,15.901 -4.037,32.024 -5.776,48.062 236.687,-73.689 482.066,-121.133 729.828,-133.863 5.889,-40.154 11.44,-80.391 16.993,-120.6 11.526,-0.085 23.049,-0.113 34.574,-0.03 -5.748,39.678 -11.524,79.353 -17.3,119.031 175.11,-6.364 350.867,3.702 523.76,32.275 127.163,20.411 252.476,51.201 375.485,89.138 1.712,-15.086 3.702,-30.171 5.666,-45.229 -126.825,-34.74 -255.333,-63.792 -385.411,-83.42 z M 930.807,1082.521 c -11.412,-0.027 -22.824,0.027 -34.208,-0.058 2.271,-16.038 4.71,-32.079 6.898,-48.145 11.271,-0.14 22.6,-0.252 33.872,-1.15 -1.823,16.488 -4.431,32.893 -6.562,49.353 z"
   id="path43"
   inkscape:connector-curvature="0"
   style="fill:#fcfefc" />
		<path
   d="m 1249.202,1005.101 c -40.097,-0.562 -80.193,-0.73 -120.263,-1.431 -7.068,-0.057 -14.218,-0.28 -21.143,1.178 -15.701,3.395 -30.957,14.916 -33.566,31.573 -7.623,41.192 -14.943,82.437 -22.459,123.656 -2.72,12.982 6.169,26.556 18.253,31.068 9.113,2.498 18.706,1.402 28.04,1.77 42.932,1.12 85.832,2.998 128.65,6.139 13.653,1.991 29.64,-6.646 31.628,-21.115 8.497,-44.47 16.938,-88.97 25.546,-133.411 5.189,-20.248 -14.806,-40.158 -34.686,-39.427 z m -74.249,163.503 c -11.355,-0.898 -22.714,-1.181 -34.07,-1.544 6.953,-44.164 13.292,-88.412 20.302,-132.575 11.666,0.085 23.331,0.058 35.021,0.112 -7.094,44.668 -13.572,89.45 -21.253,134.007 z"
   id="path45"
   inkscape:connector-curvature="0"
   style="fill:#fcfefc" />
		<path
   d="m 1521.529,1198.747 c 7.346,-49.407 15.955,-98.646 23.774,-147.996 5.132,-23.33 -18.838,-43.744 -40.767,-43.491 -67.156,-0.365 -134.313,-0.758 -201.439,-1.094 -2.049,11.638 -4.067,23.272 -5.948,34.938 12.731,0.084 25.434,0.057 38.164,0.057 -7.738,42.646 -15.113,85.353 -22.823,128.002 -12.479,-1.205 -24.928,-2.413 -37.434,-3.056 -1.908,11.61 -3.927,23.215 -6.227,34.768 41.444,4.264 82.943,7.966 124.247,13.658 8.861,-57.343 18.199,-114.603 27.115,-171.915 12.952,-0.056 25.91,-0.056 38.89,0 -8.858,59.137 -17.438,118.329 -26.526,177.438 41.587,6.476 83.028,13.741 124.19,22.46 1.769,-11.975 3.001,-24.002 4.77,-35.977 -13.293,-2.745 -26.637,-5.354 -39.986,-7.792 z"
   id="path47"
   inkscape:connector-curvature="0"
   style="fill:#fcfefc" />
	</g>
	<g
   id="Inner_Shadow_1_">
		<path
   d="m 203.39,972.293 c 77.671,0.028 155.343,0.028 233.014,0 15.562,-0.617 31.096,6.926 39.396,20.273 -11.216,-2.019 -22.516,-3.898 -33.957,-3.674 -74.754,0.197 -149.482,-0.14 -224.208,0.197 -0.673,4.431 -1.346,8.888 -1.99,13.347 -5.469,-0.112 -10.909,-0.252 -16.375,-0.337 1.231,-9.953 2.606,-19.88 4.12,-29.806 z"
   id="path50"
   inkscape:connector-curvature="0"
   style="fill:#b2b7bb" />
		<path
   d="m 1612.24,995.903 c 8.997,-14.917 26.299,-24.169 43.713,-23.413 61.52,0.111 123.01,-0.112 184.532,0.111 -0.76,5.468 -1.516,10.964 -2.216,16.46 -61.716,0.141 -123.432,-0.056 -185.119,0.084 -15.143,-0.281 -29.667,12.141 -30.622,27.48 -3.98,32.92 -8.579,65.779 -12.085,98.757 -11.832,-8.188 -13.373,-24.171 -12.142,-37.378 1.851,-17.552 4.543,-35.022 6.507,-52.548 1.317,-10.064 1.851,-20.748 7.432,-29.553 z"
   id="path52"
   inkscape:connector-curvature="0"
   style="fill:#b2b7bb" />
		<path
   d="m 392.129,1005.409 c 5.412,0.028 10.823,0.056 16.235,0.112 -3.701,35.163 -9.001,70.099 -12.898,105.206 -24.086,1.43 -48.201,2.355 -72.316,3.505 0.729,-4.373 1.429,-8.719 2.159,-13.066 18.141,-1.767 36.481,-0.842 54.566,-2.975 5.019,-30.759 7.935,-61.882 12.254,-92.782 z"
   id="path54"
   inkscape:connector-curvature="0"
   style="fill:#b2b7bb" />
		<path
   d="m 796.888,1014.408 c 62.949,-1.427 125.927,-1.849 188.878,-3.025 11.103,-0.562 24.506,2.103 29.077,13.684 -73.492,1.514 -146.985,2.803 -220.479,4.26 0.812,-4.99 1.682,-9.955 2.524,-14.919 z"
   id="path56"
   inkscape:connector-curvature="0"
   style="fill:#b2b7bb" />
		<path
   d="m 1085.616,1039.364 c 2.804,-17.327 21.17,-27.339 37.548,-27.141 40.206,-0.028 80.445,-0.226 120.682,0.111 11.808,-0.366 23.191,5.554 28.938,16.038 -45.144,0.534 -90.29,0.225 -135.405,0.197 -10.291,0.167 -21.844,-1.32 -30.535,5.411 -5.356,3.45 -5.244,10.46 -6.646,15.983 -7.123,41.359 -15.113,82.551 -22.208,123.911 -0.956,3.11 -0.477,7.652 -4.349,8.888 -9.896,-5.862 -11.465,-18.171 -9.055,-28.462 6.953,-38.328 13.881,-76.659 21.03,-114.936 z"
   id="path58"
   inkscape:connector-curvature="0"
   style="fill:#b2b7bb" />
		<path
   d="m 1754.204,1012.475 c 5.553,0 11.106,0 16.687,0.028 -1.177,10.767 -2.219,21.563 -3.367,32.331 -5.439,0.139 -10.851,0.279 -16.232,0.394 0.755,-10.937 1.792,-21.847 2.912,-32.753 z"
   id="path60"
   inkscape:connector-curvature="0"
   style="fill:#b2b7bb" />
		<path
   d="m 246.347,1016.007 c 5.637,-0.109 11.245,-0.222 16.88,-0.306 -11.243,83.811 -22.18,167.706 -33.312,251.547 -15.981,3.87 -32.049,7.43 -48.033,11.299 -0.393,5.328 -0.813,10.685 -1.206,16.041 -5.719,1.568 -11.412,3.11 -17.132,4.652 1.57,-11.326 0.869,-23.076 4.094,-34.125 15.59,-4.233 31.46,-7.401 47.219,-11.074 10.938,-79.27 21.228,-158.653 31.49,-238.034 z"
   id="path62"
   inkscape:connector-curvature="0"
   style="fill:#b2b7bb" />
		<path
   d="m 546.994,1029.551 c 11.216,-9.534 26.526,-10.991 40.658,-11.243 55.799,-1.178 111.599,-2.44 167.428,-3.785 -0.841,5.469 -1.654,10.962 -2.468,16.431 -55.885,1.541 -111.767,2.664 -167.681,3.871 -9.505,0.335 -20.104,0.924 -27.535,7.624 -7.037,6.255 -8.692,16.068 -10.291,24.875 -8.104,51.425 -16.431,102.822 -24.507,154.274 -16.852,2.917 -33.76,5.608 -50.696,8.16 1.291,-5.692 2.524,-11.383 3.813,-17.048 10.796,-1.851 21.646,-3.563 32.471,-5.44 7.542,-47.639 15.198,-95.279 22.767,-142.92 2.021,-12.702 5.807,-26.19 16.041,-34.799 z"
   id="path64"
   inkscape:connector-curvature="0"
   style="fill:#b2b7bb" />
		<path
   d="m 1315.375,1014.97 c 62.11,0.562 124.221,1.037 186.358,1.234 12.281,-0.616 23.354,6.364 30.786,15.704 -73.296,1.597 -146.734,-0.646 -220.085,-0.422 0.951,-5.522 1.934,-11.021 2.941,-16.516 z"
   id="path66"
   inkscape:connector-curvature="0"
   style="fill:#b2b7bb" />
		<path
   d="m 947.968,1033.45 c 5.075,-0.31 10.151,-0.562 15.226,-0.816 -3.815,20.863 -3.758,42.51 -10.347,62.784 17.132,2.27 34.853,8.888 43.63,24.872 -30.901,-18.87 -68.306,-14.16 -102.795,-14.664 0.533,-4.88 1.122,-9.731 1.683,-14.584 15.198,-1.316 31.208,2.386 45.649,-3.951 2.186,-17.89 4.767,-35.751 6.954,-53.641 z"
   id="path68"
   inkscape:connector-curvature="0"
   style="fill:#b2b7bb" />
		<path
   d="m 1205.376,1034.151 c 5.496,-0.027 10.991,-0.058 16.487,-0.058 -8.242,52.014 -16.964,103.974 -25.432,155.959 -19.685,-0.615 -39.37,-1.456 -59.023,-2.551 0.841,-5.412 1.709,-10.799 2.58,-16.179 14.13,0.504 28.234,1.345 42.366,1.852 8.077,-46.266 15.199,-92.701 23.022,-139.023 z"
   id="path70"
   inkscape:connector-curvature="0"
   style="fill:#b2b7bb" />
		<path
   d="m 831.797,1037.347 c 4.88,-0.197 9.758,-0.392 14.638,-0.562 -8.385,62.475 -16.769,124.976 -25.63,187.42 -222.919,18.647 -444.519,57.765 -658.745,122.788 0.616,-5.356 1.232,-10.655 1.878,-15.983 178.446,-53.78 362.053,-89.783 547.203,-110.813 32.246,-3.981 64.688,-6.448 96.963,-10.15 7.682,-57.596 15.281,-115.218 23.693,-172.7 z"
   id="path72"
   inkscape:connector-curvature="0"
   style="fill:#b2b7bb" />
		<path
   d="m 660.444,1039.505 c 3.729,-0.083 7.459,-0.197 11.216,-0.279 -3.898,26.665 -7.655,53.389 -12.112,79.972 -21.956,0.671 -43.883,2.298 -65.838,3.28 0.84,-4.124 2.298,-7.966 4.345,-11.471 16.768,-1.541 33.648,-1.262 50.472,-2.354 4.15,-23.022 7.796,-46.128 11.917,-69.148 z"
   id="path74"
   inkscape:connector-curvature="0"
   style="fill:#b2b7bb" />
		<path
   d="m 1323.396,1177.967 c 9.001,-45.621 16.603,-91.522 25.77,-137.115 5.438,0.112 10.907,0.225 16.402,0.337 -9.562,51.34 -18.954,102.711 -28.432,154.054 -17.021,-0.982 -34.012,-2.3 -51.006,-3.396 0.926,-5.41 1.797,-10.821 2.719,-16.232 11.526,0.585 23.022,1.426 34.547,2.352 z"
   id="path76"
   inkscape:connector-curvature="0"
   style="fill:#b2b7bb" />
		<path
   d="m 1444.615,1210.158 c 8.215,-56.418 16.824,-112.777 25.488,-169.112 5.494,0.03 10.991,0.059 16.541,0.088 -8.718,57.144 -17.354,114.291 -25.794,171.464 -5.411,-0.869 -10.852,-1.627 -16.235,-2.44 z"
   id="path78"
   inkscape:connector-curvature="0"
   style="fill:#b2b7bb" />
		<path
   d="m 1689.742,1116.418 c 0.616,-5.438 1.262,-10.85 1.936,-16.263 30.226,3.337 60.48,6.533 90.708,10.096 12.224,1.317 22.657,9.198 28.909,19.57 -40.629,-3.42 -81.035,-8.97 -121.553,-13.403 z"
   id="path80"
   inkscape:connector-curvature="0"
   style="fill:#b2b7bb" />
		<path
   d="m 410.103,1112.605 c 4.935,-2.886 10.038,-5.522 15.142,-8.074 9.841,4.962 20.077,10.46 25.712,20.441 -13.151,-5.553 -26.722,-10.096 -40.854,-12.367 z"
   id="path82"
   inkscape:connector-curvature="0"
   style="fill:#b2b7bb" />
		<path
   d="m 936.668,1115.635 c 4.991,-0.058 10.01,-0.058 15.001,-0.058 -4.626,34.825 -9.758,69.627 -14.104,104.507 -5.046,0.17 -10.122,0.31 -15.141,0.477 4.57,-34.993 9.589,-69.934 14.244,-104.926 z"
   id="path84"
   inkscape:connector-curvature="0"
   style="fill:#b2b7bb" />
		<path
   d="m 643.031,1130.805 c 5.665,-0.534 11.355,-1.093 17.049,-1.627 -4.458,24.509 -7.936,49.183 -12.842,73.605 -5.525,0.31 -11.047,0.534 -16.543,0.896 4.233,-24.253 8.439,-48.536 12.336,-72.874 z"
   id="path86"
   inkscape:connector-curvature="0"
   style="fill:#b2b7bb" />
		<path
   d="m 375.641,1135.542 c 5.579,-0.586 11.131,-1.204 16.683,-1.766 -4.29,34.604 -8.86,69.177 -13.095,103.806 -24.758,5.104 -49.519,10.205 -74.279,15.31 0.842,-5.775 1.656,-11.525 2.524,-17.246 18.842,-4.065 37.686,-7.935 56.614,-11.638 4.319,-29.412 7.46,-59.024 11.553,-88.466 z"
   id="path88"
   inkscape:connector-curvature="0"
   style="fill:#b2b7bb" />
		<path
   d="m 1729.335,1241.509 c 3.645,-31.323 6.224,-62.757 9.98,-94.05 5.441,0.841 10.937,1.685 16.433,2.439 -4.683,37.099 -7.599,74.392 -11.946,111.545 -25.01,-4.991 -49.966,-10.346 -75.033,-15.058 0.757,-5.496 1.54,-11.02 2.354,-16.487 19.401,3.9 38.751,8.048 58.212,11.611 z"
   id="path90"
   inkscape:connector-curvature="0"
   style="fill:#b2b7bb" />
		<path
   d="m 1583.89,1172.893 c 26.328,3.28 52.518,7.599 78.792,11.301 -0.841,5.466 -1.711,10.964 -2.494,16.487 -20.527,-3.478 -41.164,-6.114 -61.715,-9.396 -1.882,15.367 -3.057,30.817 -5.527,46.1 -5.213,-1.096 -10.399,-2.131 -15.563,-3.168 1.767,-20.469 4.404,-40.883 6.507,-61.324 z"
   id="path92"
   inkscape:connector-curvature="0"
   style="fill:#b2b7bb" />
		<path
   d="m 706.234,1184.67 c 8.16,-0.926 16.375,-1.682 24.591,-2.27 -0.757,5.495 -1.487,10.988 -2.244,16.486 -8.271,0.756 -16.57,1.542 -24.814,2.382 0.814,-5.549 1.626,-11.076 2.467,-16.598 z"
   id="path94"
   inkscape:connector-curvature="0"
   style="fill:#b2b7bb" />
		<path
   d="m 1001.748,1210.103 c 269.27,-4.235 538.456,35.722 796.731,111.178 -0.645,4.822 -1.29,9.645 -1.906,14.47 -118.554,-33.648 -238.845,-61.746 -360.734,-80.278 -144.185,-22.6 -290.3,-32.583 -436.222,-30.423 0.701,-4.993 1.403,-9.986 2.131,-14.947 z"
   id="path96"
   inkscape:connector-curvature="0"
   style="fill:#b2b7bb" />
		<path
   d="m 1516.959,1224.402 c 0.979,-5.496 1.962,-10.991 2.973,-16.46 10.318,2.076 20.636,4.206 30.899,6.646 -0.756,5.355 -1.488,10.739 -2.188,16.122 -10.6,-1.904 -21.143,-4.065 -31.684,-6.308 z"
   id="path98"
   inkscape:connector-curvature="0"
   style="fill:#b2b7bb" />
	</g>
	<g
   id="City_Text">
		<path
   d="m 462.468,518.166 c -3.598,-7.525 -9.33,-12.734 -17.032,-15.486 -2.998,-1.071 -6.142,-1.613 -9.344,-1.613 -5.023,0 -10.363,1.335 -15.871,3.969 -9.078,4.342 -15.033,10.46 -17.697,18.185 -2.665,7.725 -2.196,15.443 1.39,22.941 3.466,7.249 9.075,12.427 16.675,15.391 3.036,1.186 6.259,1.787 9.58,1.787 4.994,0 10.375,-1.361 15.992,-4.047 9.001,-4.303 14.942,-10.398 17.657,-18.118 2.714,-7.717 2.261,-15.458 -1.35,-23.009 z m -13.817,21.625 c -1.275,4.087 -3.826,7.067 -7.577,8.861 -2.01,0.961 -4.064,1.449 -6.104,1.449 -1.844,0 -3.734,-0.399 -5.62,-1.185 -3.987,-1.662 -7.19,-4.98 -9.523,-9.861 -2.65,-5.539 -3.347,-10.42 -2.069,-14.508 1.271,-4.069 3.817,-7.042 7.568,-8.833 2.081,-0.996 4.176,-1.5 6.229,-1.5 1.887,0 3.797,0.427 5.678,1.268 3.957,1.771 7.136,5.122 9.448,9.959 2.591,5.417 3.255,10.247 1.97,14.35 z"
   id="path101"
   inkscape:connector-curvature="0"
   style="fill:#fcfefc" />
		<polygon
   points="560.667,460.259 557.382,451.183 557.144,450.523 556.485,450.764 530.26,460.254 529.601,460.493 529.84,461.151 533.125,470.227 533.363,470.887 534.021,470.648 538.819,468.913 528.437,489.243 523.133,474.589 529.271,472.367 529.93,472.129 529.691,471.471 526.406,462.394 526.168,461.734 525.51,461.974 497.507,472.109 496.847,472.348 497.088,473.007 500.374,482.082 500.612,482.742 501.27,482.503 507.834,480.127 520.23,514.381 513.668,516.756 513.008,516.995 513.248,517.653 516.533,526.729 516.771,527.389 517.43,527.149 544.89,517.211 545.55,516.973 545.31,516.313 542.025,507.238 541.788,506.578 541.129,506.817 535.53,508.842 529.31,491.657 550.155,503.549 545.299,505.308 544.639,505.545 544.879,506.204 548.165,515.28 548.403,515.94 549.061,515.701 577.874,505.272 578.534,505.033 578.294,504.375 575.008,495.299 574.77,494.639 574.111,494.879 568.855,496.782 544.567,482.878 553.948,463.436 560.246,461.156 560.906,460.918 "
   id="polygon103"
   style="fill:#fcfefc" />
		<polygon
   points="649.945,454.477 649.268,454.661 649.453,455.337 653.911,471.703 638.976,475.771 629.399,440.625 636.768,438.618 637.444,438.433 637.259,437.756 634.722,428.443 634.538,427.767 633.861,427.952 603.583,436.204 602.908,436.388 603.092,437.065 605.63,446.377 605.815,447.054 606.492,446.869 613.702,444.904 623.277,480.05 616.067,482.014 615.392,482.199 615.576,482.875 618.114,492.188 618.3,492.865 618.976,492.68 668.235,479.256 668.911,479.072 668.726,478.396 661.543,452.042 661.359,451.366 660.683,451.551 "
   id="polygon105"
   style="fill:#fcfefc" />
		<path
   d="m 767.354,457.468 -1.859,-9.471 -0.135,-0.688 -0.688,0.135 -6.188,1.213 -18.35,-33.521 6.598,-1.294 0.687,-0.135 -0.135,-0.688 -1.858,-9.472 -0.134,-0.688 -0.688,0.135 -36.598,7.183 -0.687,0.135 0.135,0.688 1.858,9.472 0.134,0.688 0.689,-0.136 6.537,-1.281 -3.503,37.81 -6.417,1.261 -0.687,0.134 0.135,0.688 1.859,9.472 0.134,0.688 0.688,-0.136 24.829,-4.873 0.687,-0.134 -0.135,-0.689 -1.859,-9.471 -0.135,-0.688 -0.688,0.135 -6.564,1.287 0.937,-8.758 13.519,-2.655 3.9,7.812 -6.271,1.231 -0.687,0.134 0.135,0.689 1.859,9.471 0.135,0.688 0.688,-0.135 27.569,-5.411 0.687,-0.134 -0.133,-0.691 z m -40.328,-21.178 1.398,-14.513 6.486,12.964 -7.884,1.549 z"
   id="path107"
   inkscape:connector-curvature="0"
   style="fill:#fcfefc" />
		<polygon
   points="862.889,396.372 861.708,386.792 861.622,386.097 860.926,386.183 833.735,389.536 833.039,389.623 833.125,390.318 834.307,399.898 834.392,400.594 835.089,400.507 840.14,399.885 841.502,410.926 827.444,412.66 826.083,401.619 831.338,400.97 832.034,400.885 831.947,400.188 830.767,390.609 830.681,389.913 829.984,390 802.59,393.376 801.895,393.462 801.981,394.159 803.161,403.739 803.246,404.434 803.943,404.348 810.341,403.561 814.799,439.714 808.401,440.502 807.706,440.588 807.792,441.285 808.974,450.865 809.06,451.56 809.756,451.474 837.149,448.095 837.845,448.009 837.758,447.313 836.577,437.733 836.492,437.037 835.795,437.124 830.539,437.771 828.801,423.673 842.861,421.94 844.599,436.04 839.547,436.663 838.851,436.749 838.938,437.444 840.117,447.024 840.203,447.719 840.899,447.633 868.091,444.28 868.786,444.194 868.7,443.499 867.518,433.918 867.432,433.223 866.737,433.309 860.34,434.097 855.882,397.944 862.28,397.154 862.976,397.068 "
   id="polygon109"
   style="fill:#fcfefc" />
		<path
   d="m 978.228,407.513 c -0.42,-8.328 -3.702,-15.344 -9.751,-20.852 -5.543,-5.044 -12.841,-7.602 -21.689,-7.602 -0.816,0 -1.646,0.022 -2.489,0.064 -10.048,0.51 -17.899,3.862 -23.334,9.967 -5.435,6.101 -7.975,13.404 -7.554,21.706 0.405,8.023 3.588,14.962 9.46,20.625 5.384,5.195 12.748,7.83 21.883,7.83 0.846,0 1.709,-0.022 2.587,-0.067 9.966,-0.505 17.796,-3.843 23.271,-9.919 5.476,-6.077 8.039,-13.394 7.616,-21.752 z m -31.441,-27.752 c 0.204,0 0.396,0.021 0.599,0.023 -1,-0.014 -2.01,-0.012 -3.053,0.041 0.831,-0.042 1.649,-0.064 2.454,-0.064 z m -2.035,58.791 c -0.209,0 -0.404,-0.019 -0.612,-0.021 1.035,0.014 2.08,0.011 3.164,-0.044 -0.867,0.043 -1.717,0.065 -2.552,0.065 z m 0.953,-10.443 c 0.356,0.004 0.709,0.017 1.073,-0.003 -0.292,0.015 -0.583,0.022 -0.871,0.022 -0.07,0.001 -0.132,-0.017 -0.202,-0.019 z m 11.444,-5.961 c -2.752,3.279 -6.254,5.048 -10.407,5.259 -0.281,0.014 -0.559,0.021 -0.835,0.021 -3.874,0 -7.267,-1.444 -10.085,-4.291 -3.039,-3.07 -4.718,-7.367 -4.994,-12.771 -0.309,-6.133 0.928,-10.906 3.68,-14.186 2.739,-3.264 6.234,-5.025 10.387,-5.237 0.298,-0.015 0.593,-0.022 0.884,-0.022 4.021,0 7.453,1.479 10.195,4.396 2.97,3.159 4.612,7.474 4.883,12.828 0.306,5.998 -0.943,10.709 -3.708,14.003 z"
   id="path111"
   inkscape:connector-curvature="0"
   style="fill:#fcfefc" />
		<polygon
   points="1027.313,377.414 1027.294,378.115 1027.036,387.764 1027.018,388.465 1027.718,388.483 1034.407,388.662 1033.438,425.075 1026.746,424.897 1026.045,424.878 1026.025,425.579 1025.769,435.229 1025.749,435.93 1026.45,435.949 1050.594,436.594 1051.295,436.612 1051.314,435.912 1051.571,426.263 1051.591,425.562 1050.89,425.542 1044.118,425.362 1045.09,388.947 1045.26,388.952 1061.735,436.437 1061.892,436.894 1062.377,436.908 1068.535,437.073 1069.025,437.086 1069.206,436.635 1087.987,390.092 1088.154,390.096 1087.183,426.512 1080.986,426.346 1080.285,426.327 1080.266,427.027 1080.008,436.678 1079.989,437.378 1080.689,437.397 1109.434,438.165 1110.135,438.184 1110.151,437.482 1110.409,427.833 1110.429,427.132 1109.73,427.113 1103.037,426.935 1104.01,390.521 1110.699,390.698 1111.4,390.718 1111.42,390.017 1111.68,380.369 1111.696,379.667 1110.995,379.648 1081.799,378.87 1081.313,378.856 1081.129,379.304 1068.335,410.698 1057.306,378.67 1057.146,378.211 1056.662,378.199 1028.014,377.433 "
   id="polygon113"
   style="fill:#fcfefc" />
		<path
   d="m 1212.279,436.313 -6.271,-0.638 -7.805,-37.411 6.687,0.681 0.699,0.071 0.068,-0.697 0.977,-9.603 0.072,-0.698 -0.698,-0.07 -37.102,-3.773 -0.701,-0.071 -0.068,0.697 -0.976,9.603 -0.07,0.698 0.695,0.07 6.627,0.674 -14.349,35.157 -6.506,-0.662 -0.699,-0.071 -0.068,0.697 -0.978,9.603 -0.07,0.698 0.698,0.07 25.17,2.561 0.698,0.071 0.071,-0.697 0.975,-9.603 0.071,-0.698 -0.695,-0.07 -6.657,-0.677 3.445,-8.106 13.704,1.392 1.463,8.608 -6.358,-0.648 -0.698,-0.071 -0.071,0.697 -0.975,9.603 -0.071,0.698 0.695,0.07 27.953,2.842 0.698,0.071 0.067,-0.697 0.979,-9.602 0.071,-0.698 -0.697,-0.071 z m -32.774,-21.624 5.561,-13.479 2.435,14.293 -7.996,-0.814 z"
   id="path115"
   inkscape:connector-curvature="0"
   style="fill:#fcfefc" />
		<path
   d="m 1385.559,419.315 -9.429,-2.076 -0.685,-0.15 -0.15,0.685 -0.657,2.986 c -3.737,-3.992 -8.79,-6.71 -15.038,-8.086 -2.638,-0.581 -5.264,-0.874 -7.813,-0.874 -2.7,0 -5.39,0.33 -7.991,0.982 -5.079,1.275 -9.526,3.903 -13.223,7.813 -3.69,3.906 -6.229,8.92 -7.547,14.901 -1.851,8.405 -0.772,16.04 3.212,22.69 3.99,6.667 11.176,11.182 21.352,13.422 2.962,0.653 5.815,0.983 8.475,0.983 10.32,0 18.434,-4.938 24.115,-14.681 l 0.313,-0.53 -0.487,-0.376 -9.839,-7.655 -0.695,-0.542 -0.37,0.803 c -1.911,4.146 -4.515,7.18 -7.738,9.02 -2.24,1.278 -4.595,1.926 -6.998,1.926 -1.036,0 -2.101,-0.12 -3.171,-0.355 -4.347,-0.958 -7.619,-3.372 -9.722,-7.176 -2.119,-3.833 -2.61,-8.43 -1.459,-13.663 1.104,-5.013 3.428,-9.069 6.905,-12.056 2.462,-2.112 5.419,-3.183 8.793,-3.183 1.322,0 2.735,0.163 4.203,0.486 6.348,1.398 9.959,5.674 11.044,13.071 l 0.07,0.479 0.472,0.104 9.428,2.075 0.685,0.15 0.15,-0.685 4.326,-19.655 0.151,-0.685 -0.682,-0.148 z"
   id="path117"
   inkscape:connector-curvature="0"
   style="fill:#fcfefc" />
		<polygon
   points="1418.363,487.788 1418.166,488.461 1418.84,488.658 1449.81,497.771 1450.483,497.97 1450.681,497.298 1453.405,488.038 1453.604,487.365 1452.931,487.167 1445.209,484.895 1455.494,449.949 1463.213,452.22 1463.885,452.418 1464.084,451.746 1466.81,442.485 1467.006,441.813 1466.333,441.616 1435.362,432.503 1434.688,432.304 1434.491,432.978 1431.767,442.236 1431.567,442.91 1432.24,443.107 1439.884,445.356 1429.601,480.301 1421.958,478.055 1421.287,477.855 1421.091,478.529 "
   id="polygon119"
   style="fill:#fcfefc" />
		<polygon
   points="1554.104,498.128 1554.35,497.47 1562.392,475.964 1562.636,475.308 1561.979,475.062 1513.464,456.921 1512.807,456.677 1512.563,457.334 1504.521,478.84 1504.276,479.496 1504.932,479.743 1514.126,483.181 1514.783,483.425 1515.031,482.768 1519.445,470.959 1526.172,473.475 1513.414,507.596 1506.029,504.833 1505.375,504.589 1505.129,505.246 1501.747,514.288 1501.504,514.943 1502.16,515.19 1532.166,526.41 1532.823,526.655 1533.07,525.998 1536.45,516.958 1536.696,516.301 1536.039,516.055 1528.656,513.294 1541.411,479.174 1548.372,481.775 1543.955,493.585 1543.709,494.24 1544.366,494.487 1553.449,497.882 "
   id="polygon121"
   style="fill:#fcfefc" />
		<polygon
   points="1611.943,532.917 1605.656,546.012 1599.071,542.848 1598.439,542.545 1598.135,543.176 1593.958,551.878 1593.654,552.51 1594.287,552.814 1622.094,566.165 1622.725,566.467 1623.029,565.835 1627.207,557.133 1627.508,556.501 1626.879,556.197 1620.328,553.054 1626.615,539.952 1649.13,526.473 1655.121,529.35 1655.754,529.652 1656.058,529.021 1660.237,520.32 1660.538,519.688 1659.907,519.384 1637.207,508.486 1636.578,508.184 1636.271,508.815 1632.095,517.518 1631.79,518.15 1632.424,518.454 1636.612,520.463 1624.929,528.03 1623.622,514.228 1627.574,516.125 1628.204,516.427 1628.508,515.796 1632.687,507.094 1632.99,506.461 1632.357,506.158 1606.588,493.786 1605.953,493.483 1605.65,494.114 1601.473,502.815 1601.168,503.448 1601.801,503.751 1607.765,506.613 "
   id="polygon123"
   style="fill:#fcfefc" />
	</g>
</g>
</svg>